<svg width="48" height="48" viewBox="0 0 48 48" fill="none" xmlns="http://www.w3.org/2000/svg">
<g clip-path="url(#clip0_2249_372)">
<rect width="48" height="48" rx="24" fill="#7B4D93" style="fill:#7B4D93;fill:color(display-p3 0.4824 0.3020 0.5765);fill-opacity:1;"/>
<path d="M0 28.665C0 12.8363 10.7438 0 24 0C37.2562 0 48 12.8363 48 28.665" fill="#7B4D93" style="fill:#7B4D93;fill:color(display-p3 0.4824 0.3020 0.5765);fill-opacity:1;"/>
<path d="M24.3337 31.335C31.1455 31.335 36.6675 25.813 36.6675 19.0012C36.6675 12.1895 31.1455 6.66748 24.3337 6.66748C17.522 6.66748 12 12.1895 12 19.0012C12 25.813 17.522 31.335 24.3337 31.335Z" fill="#FF7152" style="fill:#FF7152;fill:color(display-p3 1.0000 0.4431 0.3216);fill-opacity:1;"/>
<path d="M48 28.665C48 39.3413 37.2562 48 24 48C10.7438 48 0 39.345 0 28.665" fill="#C8E4F9" style="fill:#C8E4F9;fill:color(display-p3 0.7843 0.8941 0.9765);fill-opacity:1;"/>
</g>
<defs>
<clipPath id="clip0_2249_372">
<rect width="48" height="48" rx="24" fill="white" style="fill:white;fill-opacity:1;"/>
</clipPath>
</defs>
</svg>
